<svg width="120" height="26" fill="currentColor" xmlns="http://www.w3.org/2000/svg" viewBox="0 0 119.711 26"><polygon points="92.775 21.699 102.193 23.051 102.193 13.6 92.775 13.6 92.775 21.699"/><polygon points="92.775 12.551 102.193 12.551 102.193 3.1 92.775 4.449 92.775 12.551"/><polygon points="115.957 1 103.351 2.949 103.351 12.4 115.957 12.4 115.957 1"/><path d="M119.365,23.478v-.049h0a1.157,1.157,0,0,1-.163-.463.879.879,0,0,0-.238-.523h0c-.028-.027-.059-.034-.09-.068a.179.179,0,0,0-.092-.032A2.781,2.781,0,0,0,118.7,20.5a6.277,6.277,0,0,0-1.05-1.741,2.66,2.66,0,0,1-.754-1.684c.013-1.077.114-3.067-1.711-3.07-.075,0-.152,0-.232.01-2.041.167-1.5,2.4-1.531,3.149a2.765,2.765,0,0,1-.507,1.511,7.5,7.5,0,0,0-1.312,2.26,2.783,2.783,0,0,0-.139,1.245.2.2,0,0,0-.053.067c-.125.134-.217.3-.32.42a1.173,1.173,0,0,1-.385.2.714.714,0,0,0-.417.34.679.679,0,0,0-.064.3,1.413,1.413,0,0,0,.027.268,1.261,1.261,0,0,1,.019.485.967.967,0,0,0-.051.742.7.7,0,0,0,.454.3,5.132,5.132,0,0,1,1.34.3,1.811,1.811,0,0,0,1.263.235.863.863,0,0,0,.584-.473c.283,0,.594-.134,1.091-.167.338-.029.76.134,1.245.1a.858.858,0,0,0,.055.167h0a.9.9,0,0,0,.91.536,1.679,1.679,0,0,0,1.09-.653,3.911,3.911,0,0,1,1.149-.752.545.545,0,0,0,.313-.426A1.014,1.014,0,0,0,119.365,23.478Zm-4.5-7.025a.92.92,0,0,1,.073-.385.532.532,0,0,1,.207-.266.466.466,0,0,1,.287-.1h.007a.451.451,0,0,1,.282.1.762.762,0,0,1,.211.266.993.993,0,0,1,.08.362c0-.01,0-.02,0-.03v.053l0-.011,0-.012a.924.924,0,0,1-.072.353.492.492,0,0,1-.1.168.274.274,0,0,0-.042-.021.535.535,0,0,1-.138-.067.651.651,0,0,0-.106-.033,1.02,1.02,0,0,0,.089-.1.627.627,0,0,0,.042-.2v-.01a.646.646,0,0,0-.029-.2.726.726,0,0,0-.089-.166.21.21,0,0,0-.129-.066h-.007a.151.151,0,0,0-.127.066.4.4,0,0,0-.1.166.63.63,0,0,0-.044.2v.009a1.19,1.19,0,0,0,.01.134c-.093-.034-.211-.068-.293-.1a.828.828,0,0,1-.009-.1Zm-1.2-.354a.722.722,0,0,1,.137-.267.269.269,0,0,1,.2-.1h.017a.332.332,0,0,1,.193.067.7.7,0,0,1,.166.233.9.9,0,0,1,.074.333v0a.779.779,0,0,1,0,.133v.041c-.015,0-.027.008-.04.011a1.245,1.245,0,0,0-.19.1.547.547,0,0,0,0-.134v-.008a.666.666,0,0,0-.039-.166.316.316,0,0,0-.08-.134.133.133,0,0,0-.041-.025.114.114,0,0,0-.048-.006h-.01a.111.111,0,0,0-.09.065.292.292,0,0,0-.058.135.509.509,0,0,0-.011.165v.008a.674.674,0,0,0,.039.167.309.309,0,0,0,.08.134.061.061,0,0,0,.016.012.618.618,0,0,0-.085.068.139.139,0,0,1-.063.034,1.428,1.428,0,0,1-.133-.2.907.907,0,0,1-.074-.334A.922.922,0,0,1,113.666,16.1Zm.051,1.054c.109-.067.184-.135.234-.168a1.024,1.024,0,0,0,.085-.066h0a.892.892,0,0,1,.4-.3.9.9,0,0,1,.225-.032.964.964,0,0,1,.587.2,2.058,2.058,0,0,0,.508.234h0a.544.544,0,0,1,.231.2v-.065a.291.291,0,0,1,.028.116.284.284,0,0,1-.02.119.869.869,0,0,1-.514.42v0c-.129.067-.242.166-.374.232a.9.9,0,0,1-.489.133.515.515,0,0,1-.216-.033q-.08-.045-.156-.1a2.921,2.921,0,0,0-.3-.233v0h0a.776.776,0,0,1-.331-.355A.255.255,0,0,1,113.717,17.153Zm.076,7.83a.656.656,0,0,1-.543.647,1.737,1.737,0,0,1-1.157-.232,3.832,3.832,0,0,0-1.38-.3.467.467,0,0,1-.349-.2.839.839,0,0,1,.06-.615v0a1.247,1.247,0,0,0-.013-.559.817.817,0,0,1,.021-.47c.077-.167.191-.2.333-.266a1.337,1.337,0,0,0,.442-.235h0c.124-.134.215-.3.323-.419a.415.415,0,0,1,.32-.168h0a.384.384,0,0,1,.076.007.812.812,0,0,1,.494.376l.439.832h0a5.153,5.153,0,0,0,.574.819,1.4,1.4,0,0,1,.352.785Zm-.036-.611a1.351,1.351,0,0,0-.194-.267.714.714,0,0,0-.133-.166.761.761,0,0,0,.225-.034.3.3,0,0,0,.151-.167.68.68,0,0,0-.166-.581,3.1,3.1,0,0,0-.864-.761,1.265,1.265,0,0,1-.555-.7,1.622,1.622,0,0,1-.008-.822,4.98,4.98,0,0,1,.616-1.382c.051-.032.018.068-.2.487a1.9,1.9,0,0,0-.059,1.927,4.171,4.171,0,0,1,.312-1.438,8.809,8.809,0,0,0,.887-2.634c.023.018.1.068.14.1.1.066.183.167.284.232a.565.565,0,0,0,.424.168l.053,0a1.008,1.008,0,0,0,.481-.134,4.1,4.1,0,0,1,.358-.2h0a.932.932,0,0,0,.5-.35h0a12.184,12.184,0,0,0,.838,2.237,5.342,5.342,0,0,1,.532,1.512.871.871,0,0,1,.248.032,2.08,2.08,0,0,0-.526-1.983c-.107-.1-.112-.168-.06-.168a2.913,2.913,0,0,1,.8,1.379,1.8,1.8,0,0,1,.01.835.35.35,0,0,0,.1.033c.5.267.683.469.595.769V22.28c-.029,0-.058,0-.087,0h-.008c.073-.233-.088-.412-.515-.612s-.794-.168-.854.233a.4.4,0,0,0-.009.067.538.538,0,0,1-.1.032.913.913,0,0,0-.383.594,5.31,5.31,0,0,0-.1.934v0a3.892,3.892,0,0,1-.154.675A2.166,2.166,0,0,1,113.757,24.372Zm5.573.038a3.984,3.984,0,0,0-1.186.785,1.486,1.486,0,0,1-.984.595.718.718,0,0,1-.76-.449h0a1.32,1.32,0,0,1,.027-.845,5.962,5.962,0,0,0,.224-.949,5.21,5.21,0,0,1,.094-.907.726.726,0,0,1,.309-.492l.022-.011h0a.724.724,0,0,0,.426.689,1.038,1.038,0,0,0,.865-.383l.1,0a.491.491,0,0,1,.409.134v0a.91.91,0,0,1,.189.438,1.131,1.131,0,0,0,.2.533.941.941,0,0,1,.307.569C119.564,24.243,119.482,24.31,119.33,24.41Zm.242-.292v0Z"/><path d="M113.972,17.657a1.118,1.118,0,0,0,.618.233,1.761,1.761,0,0,0,.719-.268h0a4.007,4.007,0,0,0,.334-.234c.087-.1.132-.158.071-.166s-.06.066-.135.134c-.1.066-.219.166-.313.233a1.481,1.481,0,0,1-.675.233.979.979,0,0,1-.564-.234c-.07-.066-.128-.133-.174-.166s-.043-.092-.1-.1c-.034,0-.043.1.036.167C113.837,17.523,113.9,17.59,113.972,17.657Z"/><path d="M114.933,16.9c.024,0,.062-.009.065-.033s-.042-.068-.072-.068a.147.147,0,0,0-.126,0,.024.024,0,0,0-.014.025v.011c.008.028.054.023.079.033S114.906,16.9,114.933,16.9Z"/><path d="M114.44,16.864c.026-.009.07,0,.08-.033h0v-.01a.024.024,0,0,0-.015-.025.152.152,0,0,0-.125,0c-.03,0-.077.034-.072.067s.041.034.065.034S114.417,16.877,114.44,16.864Z"/><path d="M110.406,21.9l.031-.045a4.08,4.08,0,0,1,.209-1.234,8.433,8.433,0,0,1,1.488-2.585,1.739,1.739,0,0,0,.285-.945c0-.071-.008-.2-.017-.34-.041-.645-.14-2.268.905-3.153h-9.956l.146,9.6,5.777.835-.011-.076a2.662,2.662,0,0,1-.043-.455,1.643,1.643,0,0,1,.157-.723,1.666,1.666,0,0,1,.888-.819Z"/><path d="M13.3,3.831h0A5.253,5.253,0,0,0,14.55,0a5.4,5.4,0,0,0-3.532,1.818A5.022,5.022,0,0,0,9.745,5.532,4.477,4.477,0,0,0,13.3,3.831Z"/><path d="M16.33,12.74a5.387,5.387,0,0,1,2.6-4.559,5.624,5.624,0,0,0-4.39-2.376c-2-.156-3.675,1.09-4.61,1.09h0c-.948,0-2.415-1.078-3.96-1.04A5.85,5.85,0,0,0,1.006,8.87c-2.117,3.675-.546,9.1,1.519,12.09C3.538,22.414,4.733,24.05,6.317,24c1.52-.065,2.09-.987,3.935-.987s2.35.987,3.96.948c1.637-.026,2.676-1.48,3.676-2.948A13.05,13.05,0,0,0,19.55,17.6,5.3,5.3,0,0,1,16.33,12.74Z"/><path d="M56.156,6.8c.05,0,.129-.017.135-.066.01-.068-.087-.135-.15-.135a.319.319,0,0,0-.26,0c-.016.008-.035.03-.029.05v.022c.017.057.111.047.163.065S56.1,6.8,56.156,6.8Z"/><path d="M54.166,8.314a2.357,2.357,0,0,0,1.28.466,3.734,3.734,0,0,0,1.488-.535h0a8.2,8.2,0,0,0,.69-.468c.181-.2.275-.316.147-.332-.13,0-.123.131-.279.267-.2.133-.453.332-.648.467a3.146,3.146,0,0,1-1.4.466,2.081,2.081,0,0,1-1.167-.467c-.145-.133-.264-.267-.36-.333-.07-.066-.09-.184-.2-.2-.07,0-.09.2.074.333C53.886,8.046,54.012,8.18,54.166,8.314Z"/><path d="M65.333,19.858l0,0a2.27,2.27,0,0,1-.338-.926,1.738,1.738,0,0,0-.492-1.046h0c-.059-.054-.123-.067-.188-.135a.36.36,0,0,0-.19-.064,5.382,5.382,0,0,0-.173-3.694,12.53,12.53,0,0,0-2.175-3.483,5.231,5.231,0,0,1-1.56-3.368c.026-2.152.236-6.133-3.544-6.139-.155,0-.315.008-.48.021-4.226.333-3.1,4.807-3.17,6.3a5.4,5.4,0,0,1-1.05,3.02,14.9,14.9,0,0,0-2.716,4.521,5.366,5.366,0,0,0-.287,2.489.409.409,0,0,0-.11.135c-.26.268-.45.6-.663.839a2.429,2.429,0,0,1-.8.4,1.476,1.476,0,0,0-.864.68,1.338,1.338,0,0,0-.132.6,2.81,2.81,0,0,0,.055.536,2.451,2.451,0,0,1,.04.97A1.871,1.871,0,0,0,46.387,23a1.455,1.455,0,0,0,.94.6,10.882,10.882,0,0,1,2.774.6,3.865,3.865,0,0,0,2.616.47,1.772,1.772,0,0,0,1.208-.946c.587,0,1.23-.269,2.26-.334.7-.058,1.574.267,2.577.2a1.705,1.705,0,0,0,.114.333l0,0a1.878,1.878,0,0,0,1.884,1.071,3.5,3.5,0,0,0,2.257-1.306,8.127,8.127,0,0,1,2.378-1.5,1.1,1.1,0,0,0,.649-.853,2.007,2.007,0,0,0-.714-1.376ZM56.022,5.905a1.765,1.765,0,0,1,.15-.768A1.079,1.079,0,0,1,56.6,4.6a.98.98,0,0,1,.594-.2h.013a.952.952,0,0,1,.584.2,1.527,1.527,0,0,1,.438.533,1.935,1.935,0,0,1,.166.724c0-.02.006-.04.006-.06v.105a.052.052,0,0,1,0-.021l0-.024a1.807,1.807,0,0,1-.15.706.967.967,0,0,1-.213.335.785.785,0,0,0-.088-.042,1.121,1.121,0,0,1-.284-.133,1.426,1.426,0,0,0-.22-.066,1.875,1.875,0,0,0,.183-.2,1.184,1.184,0,0,0,.088-.4V6.04a1.233,1.233,0,0,0-.061-.4,1.467,1.467,0,0,0-.183-.333.458.458,0,0,0-.267-.132h-.016a.319.319,0,0,0-.262.132.794.794,0,0,0-.2.334,1.17,1.17,0,0,0-.09.4V6.06a2.38,2.38,0,0,0,.02.267c-.193-.067-.438-.135-.607-.2a1.339,1.339,0,0,1-.018-.2ZM53.533,5.2a1.424,1.424,0,0,1,.283-.535.562.562,0,0,1,.418-.2h.036a.7.7,0,0,1,.4.135,1.382,1.382,0,0,1,.344.465,1.742,1.742,0,0,1,.153.667v0a1.468,1.468,0,0,1,0,.266v.08c-.03.007-.056.018-.083.024a2.714,2.714,0,0,0-.393.2,1.086,1.086,0,0,0,0-.267V6.023a1.351,1.351,0,0,0-.082-.333.626.626,0,0,0-.166-.267.264.264,0,0,0-.085-.051.253.253,0,0,0-.1-.013h-.021a.232.232,0,0,0-.186.132.543.543,0,0,0-.12.27.942.942,0,0,0-.023.33v.015a1.3,1.3,0,0,0,.08.334.623.623,0,0,0,.166.268.122.122,0,0,0,.034.024,1.193,1.193,0,0,0-.176.136.317.317,0,0,1-.131.068,2.621,2.621,0,0,1-.275-.4,1.749,1.749,0,0,1-.155-.667A1.737,1.737,0,0,1,53.533,5.2Zm.106,2.107c.224-.135.38-.271.483-.336s.143-.1.176-.131h0v0a1.846,1.846,0,0,1,.839-.6A1.824,1.824,0,0,1,55.6,6.17a2.03,2.03,0,0,1,1.216.4,4.493,4.493,0,0,0,1.052.468h0a1.12,1.12,0,0,1,.478.4V7.305a.572.572,0,0,1,.058.233.582.582,0,0,1-.042.237,1.781,1.781,0,0,1-1.063.842v0c-.268.135-.5.333-.775.465a1.924,1.924,0,0,1-1.012.267,1.136,1.136,0,0,1-.448-.067,3.307,3.307,0,0,1-.322-.2,5.745,5.745,0,0,0-.612-.465V8.616h-.005a1.57,1.57,0,0,1-.686-.71A.5.5,0,0,1,53.639,7.306ZM53.8,22.965a1.328,1.328,0,0,1-1.125,1.294,3.7,3.7,0,0,1-2.395-.464,8.2,8.2,0,0,0-2.857-.6.971.971,0,0,1-.723-.4,1.622,1.622,0,0,1,.123-1.23v0l0,0a2.438,2.438,0,0,0-.027-1.118,1.575,1.575,0,0,1,.043-.94c.16-.334.4-.4.69-.533a2.8,2.8,0,0,0,.915-.47h0v0c.256-.268.445-.6.668-.838a.873.873,0,0,1,.663-.336h.01a.916.916,0,0,1,.157.014,1.684,1.684,0,0,1,1.023.752l.91,1.664,0,0a10.345,10.345,0,0,0,1.189,1.637,2.755,2.755,0,0,1,.729,1.57Zm-.075-1.222a2.645,2.645,0,0,0-.4-.533,1.493,1.493,0,0,0-.275-.333,1.653,1.653,0,0,0,.465-.067.619.619,0,0,0,.314-.334,1.324,1.324,0,0,0-.345-1.163,6.34,6.34,0,0,0-1.788-1.521,2.546,2.546,0,0,1-1.15-1.4,3.131,3.131,0,0,1-.015-1.645A9.758,9.758,0,0,1,51.8,11.988c.107-.065.037.135-.408.974-.4.751-1.14,2.5-.122,3.854a8.1,8.1,0,0,1,.647-2.876c.564-1.278,1.743-3.5,1.836-5.268.048.036.217.135.289.2.218.133.38.333.59.465a1.189,1.189,0,0,0,.876.335c.039,0,.075.006.11.006a2.146,2.146,0,0,0,1-.268c.29-.134.52-.334.74-.4h.005a1.93,1.93,0,0,0,1.044-.7h0a23.955,23.955,0,0,0,1.735,4.473,10.472,10.472,0,0,1,1.1,3.024,1.889,1.889,0,0,1,.513.064,4.069,4.069,0,0,0-1.089-3.966c-.22-.2-.232-.335-.123-.335a5.8,5.8,0,0,1,1.646,2.757A3.5,3.5,0,0,1,62.209,16a.746.746,0,0,0,.2.067c1.032.534,1.413.938,1.23,1.537V17.56c-.06,0-.12,0-.18,0h-.016c.151-.467-.182-.825-1.065-1.224-.915-.4-1.646-.336-1.77.465a.947.947,0,0,0-.018.135,1.323,1.323,0,0,1-.209.064,1.825,1.825,0,0,0-.793,1.187,10.306,10.306,0,0,0-.205,1.869v0a7.506,7.506,0,0,1-.319,1.35A4.611,4.611,0,0,1,53.721,21.743Zm12.041-.507,0-.011,0-.007Zm0-.012c-.016.262-.186.4-.5.595a8.31,8.31,0,0,0-2.457,1.57,3.1,3.1,0,0,1-2.036,1.191,1.5,1.5,0,0,1-1.574-.9l-.005,0a2.562,2.562,0,0,1,.056-1.69,11.57,11.57,0,0,0,.463-1.9,10.335,10.335,0,0,1,.2-1.814,1.447,1.447,0,0,1,.641-.984l.045-.022v0a1.443,1.443,0,0,0,.882,1.377,2.183,2.183,0,0,0,1.791-.765l.211-.01a1.037,1.037,0,0,1,.847.268l0,0a1.815,1.815,0,0,1,.391.876,2.213,2.213,0,0,0,.409,1.066A1.875,1.875,0,0,1,65.759,21.224Z"/><path d="M55,6.8c.054,0,.093-.043.14-.068s.146-.008.166-.066v0h0V6.64a.047.047,0,0,0-.03-.05.32.32,0,0,0-.259,0c-.062,0-.16.067-.15.133C54.865,6.776,54.945,6.8,55,6.8Z"/></svg>
